<svg id="visual" viewBox="0 0 960 540" width="960" height="540" xmlns="http://www.w3.org/2000/svg" xmlns:xlink="http://www.w3.org/1999/xlink" version="1.1"><path d="M0 440L20 440.3C40 440.7 80 441.3 120 440.2C160 439 200 436 240 423.7C280 411.3 320 389.7 360 375.5C400 361.3 440 354.7 480 355.2C520 355.7 560 363.3 600 373.2C640 383 680 395 720 402.2C760 409.3 800 411.7 840 418.8C880 426 920 438 940 444L960 450L960 0L940 0C920 0 880 0 840 0C800 0 760 0 720 0C680 0 640 0 600 0C560 0 520 0 480 0C440 0 400 0 360 0C320 0 280 0 240 0C200 0 160 0 120 0C80 0 40 0 20 0L0 0Z" fill="#f37d00"></path><path d="M0 325L20 324.2C40 323.3 80 321.7 120 311.5C160 301.3 200 282.7 240 274C280 265.3 320 266.7 360 268.7C400 270.7 440 273.3 480 271C520 268.7 560 261.3 600 274.2C640 287 680 320 720 330C760 340 800 327 840 318.7C880 310.3 920 306.7 940 304.8L960 303L960 0L940 0C920 0 880 0 840 0C800 0 760 0 720 0C680 0 640 0 600 0C560 0 520 0 480 0C440 0 400 0 360 0C320 0 280 0 240 0C200 0 160 0 120 0C80 0 40 0 20 0L0 0Z" fill="#f5660f"></path><path d="M0 191L20 189.3C40 187.7 80 184.3 120 188.7C160 193 200 205 240 206C280 207 320 197 360 201.5C400 206 440 225 480 225.5C520 226 560 208 600 199.5C640 191 680 192 720 194.7C760 197.3 800 201.7 840 209.7C880 217.7 920 229.3 940 235.2L960 241L960 0L940 0C920 0 880 0 840 0C800 0 760 0 720 0C680 0 640 0 600 0C560 0 520 0 480 0C440 0 400 0 360 0C320 0 280 0 240 0C200 0 160 0 120 0C80 0 40 0 20 0L0 0Z" fill="#f54c1d"></path><path d="M0 123L20 117.7C40 112.3 80 101.7 120 104.8C160 108 200 125 240 128.2C280 131.3 320 120.7 360 119.3C400 118 440 126 480 127.8C520 129.7 560 125.3 600 127.2C640 129 680 137 720 131.2C760 125.3 800 105.7 840 103.7C880 101.7 920 117.3 940 125.2L960 133L960 0L940 0C920 0 880 0 840 0C800 0 760 0 720 0C680 0 640 0 600 0C560 0 520 0 480 0C440 0 400 0 360 0C320 0 280 0 240 0C200 0 160 0 120 0C80 0 40 0 20 0L0 0Z" fill="#f42929"></path></svg>
