<svg id="wave" style="transform:rotate(180deg); transition: 0.3s" viewBox="0 0 1440 490" version="1.1" xmlns="http://www.w3.org/2000/svg"><defs><linearGradient id="sw-gradient-0" x1="0" x2="0" y1="1" y2="0"><stop stop-color="rgba(232.552, 0, 0, 1)" offset="0%"></stop><stop stop-color="rgba(248.49, 173.085, 6.401, 1)" offset="100%"></stop></linearGradient></defs><path style="transform:translate(0, 0px); opacity:1" fill="url(#sw-gradient-0)" d="M0,98L80,106.2C160,114,320,131,480,122.5C640,114,800,82,960,89.8C1120,98,1280,147,1440,138.8C1600,131,1760,65,1920,89.8C2080,114,2240,229,2400,269.5C2560,310,2720,278,2880,220.5C3040,163,3200,82,3360,73.5C3520,65,3680,131,3840,171.5C4000,212,4160,229,4320,196C4480,163,4640,82,4800,49C4960,16,5120,33,5280,65.3C5440,98,5600,147,5760,171.5C5920,196,6080,196,6240,196C6400,196,6560,196,6720,212.3C6880,229,7040,261,7200,261.3C7360,261,7520,229,7680,228.7C7840,229,8000,261,8160,253.2C8320,245,8480,196,8640,220.5C8800,245,8960,343,9120,334.8C9280,327,9440,212,9600,187.8C9760,163,9920,229,10080,285.8C10240,343,10400,392,10560,408.3C10720,425,10880,408,11040,408.3C11200,408,11360,425,11440,432.8L11520,441L11520,490L11440,490C11360,490,11200,490,11040,490C10880,490,10720,490,10560,490C10400,490,10240,490,10080,490C9920,490,9760,490,9600,490C9440,490,9280,490,9120,490C8960,490,8800,490,8640,490C8480,490,8320,490,8160,490C8000,490,7840,490,7680,490C7520,490,7360,490,7200,490C7040,490,6880,490,6720,490C6560,490,6400,490,6240,490C6080,490,5920,490,5760,490C5600,490,5440,490,5280,490C5120,490,4960,490,4800,490C4640,490,4480,490,4320,490C4160,490,4000,490,3840,490C3680,490,3520,490,3360,490C3200,490,3040,490,2880,490C2720,490,2560,490,2400,490C2240,490,2080,490,1920,490C1760,490,1600,490,1440,490C1280,490,1120,490,960,490C800,490,640,490,480,490C320,490,160,490,80,490L0,490Z"></path></svg>
